<?xml version="1.0" encoding="UTF-8"?><svg id="_レイヤー_2" xmlns="http://www.w3.org/2000/svg" viewBox="0 0 681 687.73"><defs><style>.cls-1{fill:#44403c;}.cls-2{fill:none;stroke:#eab308;stroke-linecap:round;stroke-miterlimit:10;stroke-width:12px;}.cls-3{fill:#a3e635;}.cls-4{fill:#fcd34d;}</style></defs><g id="_レイヤー_4"><ellipse class="cls-3" cx="414.83" cy="20.65" rx="18" ry="32" transform="translate(237 396.01) rotate(-67.5)"/><ellipse class="cls-3" cx="473.96" cy="45.15" rx="18" ry="32" transform="translate(250.88 465.75) rotate(-67.5)"/><rect class="cls-3" x="424.78" y="27.29" width="18" height="62.5" transform="translate(55.42 -161.54) rotate(22.5)"/><path class="cls-4" d="M553,283.73c0-117.36-95.14-212.5-212.5-212.5s-212.5,95.14-212.5,212.5c0,10.88.82,21.56,2.4,32-1.58,10.44-2.4,21.12-2.4,32,0,117.36,95.14,212.5,212.5,212.5s212.5-95.14,212.5-212.5c0-10.88-.82-21.56-2.4-32,1.58-10.44,2.4-21.12,2.4-32Z"/><path class="cls-4" d="M299.5,495.73c-17.67,0-32,14.33-32,32v129h.03c.53,17.21,14.64,31,31.97,31s31.45-13.79,31.97-31h.03v-129c0-17.67-14.33-32-32-32Z"/><path class="cls-4" d="M381.5,495.73c-17.67,0-32,14.33-32,32v129h.03c.53,17.21,14.64,31,31.97,31s31.45-13.79,31.97-31h.03v-129c0-17.67-14.33-32-32-32Z"/><path class="cls-4" d="M681,347.73c0-17.51-14.06-31.72-31.5-31.99h0s-128.5-.01-128.5-.01c-17.67,0-32,14.33-32,32s14.33,32,32,32h128.5c17.44-.28,31.5-14.49,31.5-32Z"/><path class="cls-4" d="M160,315.73H27v.39c-15.3,2.4-27,15.64-27,31.61s11.7,29.21,27,31.61v.39h133c17.67,0,32-14.33,32-32s-14.33-32-32-32Z"/><circle class="cls-1" cx="381.5" cy="243.23" r="9"/><circle class="cls-1" cx="299.5" cy="243.23" r="9"/><path class="cls-2" d="M363.13,266.36c-5.79,5.79-13.79,9.37-22.63,9.37s-16.84-3.58-22.63-9.37"/></g></svg>