<svg width="96" height="96" viewBox="0 0 16 16" style="image-rendering:pixelated" xmlns="http://www.w3.org/2000/svg">
<rect x="4" y="3" width="8" height="9" fill="#d4a96a"></rect>
<rect x="3" y="4" width="10" height="7" fill="#d4a96a"></rect>
<rect x="4" y="4" width="8" height="7" fill="#e0bc85"></rect>
<rect x="4" y="10" width="8" height="2" fill="#b8904f"></rect>
<rect x="3" y="9" width="1" height="2" fill="#b8904f"></rect>
<rect x="12" y="9" width="1" height="2" fill="#b8904f"></rect>
<rect x="6" y="6" width="1" height="2" fill="#000000"></rect>
<rect x="9" y="6" width="1" height="2" fill="#000000"></rect>
<rect x="6" y="9" width="4" height="1" fill="#000000"></rect>
<rect x="7" y="9" width="2" height="1" fill="#000000"></rect>
<rect x="7" y="1" width="2" height="2" fill="#6db56d"></rect>
<rect x="6" y="2" width="1" height="1" fill="#6db56d"></rect>
<rect x="9" y="2" width="1" height="1" fill="#6db56d"></rect>
<rect x="2" y="6" width="1" height="2" fill="#d4a96a"></rect>
<rect x="13" y="6" width="1" height="2" fill="#d4a96a"></rect>
<rect x="5" y="12" width="2" height="1" fill="#b8904f"></rect>
<rect x="9" y="12" width="2" height="1" fill="#b8904f"></rect>
</svg>